<svg width="24" height="24" viewBox="0 0 24 24" fill="none" xmlns="http://www.w3.org/2000/svg">
<path fill-rule="evenodd" clip-rule="evenodd" d="M17.1875 8.66667H18.125C19.1562 8.66667 20 9.52381 20 10.5714V15.1327C19.6386 15.0459 19.2619 15 18.875 15C16.1938 15 14 17.2071 14 19.9048C14 20.6531 14.1688 21.3638 14.4701 22H6.875C5.84375 22 5 21.1429 5 20.0952V10.5714C5 9.52381 5.84375 8.66667 6.875 8.66667H7.8125V6.7619C7.8125 4.13333 9.9125 2 12.5 2C15.0875 2 17.1875 4.13333 17.1875 6.7619V8.66667ZM12.5 17.2381C11.4688 17.2381 10.625 16.381 10.625 15.3333C10.625 14.2857 11.4688 13.4286 12.5 13.4286C13.5312 13.4286 14.375 14.2857 14.375 15.3333C14.375 16.381 13.5312 17.2381 12.5 17.2381ZM9.59375 6.7619V8.66667H15.4062V6.7619C15.4062 5.13333 14.1031 3.80952 12.5 3.80952C10.8969 3.80952 9.59375 5.13333 9.59375 6.7619ZM19.5 23.5C17.85 23.5 16.5 22.15 16.5 20.5C16.5 19.5553 16.9425 18.709 17.6305 18.1581L18.0078 20.6526C18.0849 21.4066 18.7265 22 19.5 22C20.325 22 21 21.325 21 20.5C21 20.1512 20.8793 19.8291 20.6776 19.5736L19.3572 20.894L18.7684 16.7684L22.894 17.3572L21.7407 18.5105C22.2125 19.041 22.5 19.7386 22.5 20.5C22.5 22.15 21.15 23.5 19.5 23.5Z" fill="black"/>
<mask id="mask0_0_696" style="mask-type:alpha" maskUnits="userSpaceOnUse" x="5" y="2" width="18" height="22">
<path fill-rule="evenodd" clip-rule="evenodd" d="M17.1875 8.66667H18.125C19.1562 8.66667 20 9.52381 20 10.5714V15.1327C19.6386 15.0459 19.2619 15 18.875 15C16.1938 15 14 17.2071 14 19.9048C14 20.6531 14.1688 21.3638 14.4701 22H6.875C5.84375 22 5 21.1429 5 20.0952V10.5714C5 9.52381 5.84375 8.66667 6.875 8.66667H7.8125V6.7619C7.8125 4.13333 9.9125 2 12.5 2C15.0875 2 17.1875 4.13333 17.1875 6.7619V8.66667ZM12.5 17.2381C11.4688 17.2381 10.625 16.381 10.625 15.3333C10.625 14.2857 11.4688 13.4286 12.5 13.4286C13.5312 13.4286 14.375 14.2857 14.375 15.3333C14.375 16.381 13.5312 17.2381 12.5 17.2381ZM9.59375 6.7619V8.66667H15.4062V6.7619C15.4062 5.13333 14.1031 3.80952 12.5 3.80952C10.8969 3.80952 9.59375 5.13333 9.59375 6.7619ZM19.5 23.5C17.85 23.5 16.5 22.15 16.5 20.5C16.5 19.5553 16.9425 18.709 17.6305 18.1581L18.0078 20.6526C18.0849 21.4066 18.7265 22 19.5 22C20.325 22 21 21.325 21 20.5C21 20.1512 20.8793 19.8291 20.6776 19.5736L19.3572 20.894L18.7684 16.7684L22.894 17.3572L21.7407 18.5105C22.2125 19.041 22.5 19.7386 22.5 20.5C22.5 22.15 21.15 23.5 19.5 23.5Z" fill="white"/>
</mask>
<g mask="url(#mask0_0_696)">
<rect width="24" height="24" fill="#737373"/>
</g>
</svg>
