<svg width="36" height="36" viewBox="0 0 36 36" fill="none" xmlns="http://www.w3.org/2000/svg">
<path fill-rule="evenodd" clip-rule="evenodd" d="M0 18C0 8.07484 8.07484 0 18 0C27.9259 0 36 8.07484 36 18C36 27.9244 27.9244 36 18 36C8.07484 36 0 27.9244 0 18ZM26.0422 14.4183C26.0422 14.2385 26.0379 14.0586 26.0299 13.8803C26.8398 13.2981 27.5423 12.568 28.0948 11.7385C27.3545 12.0684 26.5541 12.2903 25.7152 12.3903C26.5729 11.877 27.2277 11.0657 27.5394 10.0977C26.7368 10.5741 25.8523 10.9177 24.9075 11.1034C24.1506 10.2986 23.0753 9.79538 21.8833 9.79538C19.5958 9.79538 17.7412 11.6508 17.7412 13.9383C17.7412 14.2638 17.7767 14.5792 17.8477 14.883C14.4052 14.709 11.3513 13.0603 9.30887 10.553C8.95215 11.165 8.74841 11.877 8.74841 12.6368C8.74841 14.0739 9.47998 15.3427 10.5908 16.0844C9.91211 16.0634 9.27334 15.8763 8.71506 15.5667C8.71433 15.5834 8.71433 15.6015 8.71433 15.6189C8.71433 17.6273 10.1419 19.3015 12.0372 19.6814C11.6899 19.7764 11.323 19.8257 10.9453 19.8257C10.6792 19.8257 10.4189 19.7988 10.1666 19.751C10.6937 21.3976 12.2243 22.5953 14.0369 22.6287C12.6187 23.7395 10.8329 24.4022 8.89124 24.4022C8.557 24.4022 8.2271 24.3826 7.90301 24.3442C9.73592 25.5202 11.914 26.2039 14.2537 26.2039C21.8761 26.2039 26.0422 19.8931 26.0422 14.4183Z" fill="white"/>
</svg>
