<svg width="106" height="24" viewBox="0 0 106 24" fill="none" xmlns="http://www.w3.org/2000/svg">
<path fill-rule="evenodd" clip-rule="evenodd" d="M1.67634 0.0780081C2.26652 -0.0849887 2.86943 0.0148939 3.36656 0.308172C3.86949 0.604636 4.26415 1.09942 4.42893 1.71985L9.5558 21.036C9.72031 21.6561 9.62531 22.2905 9.33978 22.813C9.05563 23.3327 8.58316 23.7409 7.98966 23.9135L7.98052 23.9164C7.38342 24.0872 6.77247 23.9885 6.26953 23.692C5.76687 23.3955 5.37222 22.9008 5.20743 22.28L0.0805634 2.96418C-0.083944 2.34404 0.0110494 1.70971 0.296583 1.18714C0.58184 0.664855 1.05819 0.254902 1.65585 0.0837984L1.67634 0.0780081ZM7.70909 11.1023L9.99878 20L14.3757 2.99225C14.5367 2.36638 14.4437 1.72589 14.1642 1.19856C13.885 0.671217 13.4187 0.257309 12.8339 0.0845847L12.8151 0.0788558C12.2369 -0.085848 11.646 0.0149794 11.1593 0.31116C10.667 0.610205 10.2804 1.10976 10.1191 1.73592L7.70909 11.1023ZM97.3273 16.5051C97.3273 15.8719 97.4635 15.2825 97.7352 14.7371C98.002 14.2017 98.3967 13.7168 98.9191 13.2823L98.921 13.28C99.4367 12.8533 100.006 12.5321 100.628 12.3184C101.243 12.1065 101.909 12 102.623 12H104.781C105.159 12 105.456 12.1139 105.673 12.3394C105.891 12.5654 106 12.8754 106 13.2667V13.7666C106 14.1571 105.891 14.4653 105.672 14.6919C105.455 14.9171 105.158 15.0299 104.781 15.0299H102.623C102.344 15.0299 102.088 15.07 101.856 15.1497C101.628 15.2277 101.421 15.3444 101.236 15.4995C101.058 15.6481 100.926 15.8075 100.841 15.9765C100.762 16.1358 100.722 16.3121 100.722 16.5051V22.7333C100.722 23.5798 100.317 24 99.5061 24H98.5468C98.1698 24 97.8726 23.8873 97.655 23.6615L97.6534 23.6595C97.4361 23.4338 97.3273 23.1249 97.3273 22.7333V16.5051ZM86.7192 15C86.4373 15 86.1786 15.0275 85.9444 15.0822C85.7149 15.1358 85.5062 15.2159 85.3184 15.3223C85.1388 15.4244 85.0057 15.5337 84.9205 15.6497C84.8431 15.7556 84.8025 15.8726 84.8 16H91.5616C91.7093 16 91.8402 15.9858 91.9539 15.9581C92.064 15.9311 92.1681 15.8891 92.2655 15.8322H92.2658C92.3523 15.7806 92.4157 15.7267 92.4556 15.6701L92.4564 15.6705C92.4912 15.6202 92.5091 15.563 92.5091 15.4988C92.5091 15.4362 92.4907 15.379 92.455 15.3282C92.4157 15.2721 92.3523 15.2186 92.2655 15.1678C92.1681 15.1109 92.064 15.0689 91.9539 15.0419C91.8402 15.0142 91.7095 15 91.5616 15H86.7192ZM91.7298 12C92.3515 12 92.9328 12.0887 93.4736 12.2656C94.0183 12.4436 94.5155 12.7109 94.9657 13.0664C95.424 13.4283 95.7713 13.833 96.0047 14.2783C96.2436 14.734 96.3636 15.2271 96.3636 15.7566C96.3636 16.2876 96.2439 16.7815 96.005 17.2375C95.7716 17.6837 95.4243 18.0886 94.9657 18.4503C94.5155 18.8057 94.0183 19.073 93.4736 19.251C92.9328 19.4282 92.3515 19.5169 91.7298 19.5169H84.5728C84.576 19.7014 84.6187 19.8707 84.7004 20.0241C84.7902 20.1934 84.9303 20.3527 85.1192 20.5022L85.1195 20.5019C85.3191 20.6562 85.5409 20.7729 85.7841 20.8509C86.0321 20.9303 86.3055 20.9701 86.6043 20.9701H95.0607C95.4633 20.9701 95.7821 21.0831 96.0149 21.3092C96.2468 21.535 96.3636 21.8438 96.3636 22.2368V22.7333C96.3636 23.1263 96.2468 23.4354 96.0149 23.6609C95.7821 23.8873 95.4633 24 95.0607 24H86.6043C85.8402 24 85.1276 23.894 84.4685 23.6821C83.8087 23.4696 83.2019 23.1486 82.6494 22.7186L82.6483 22.72C82.0891 22.2866 81.6665 21.8008 81.3814 21.2651C81.0908 20.7189 80.9455 20.1287 80.9455 19.4952V19.4922C80.9455 20.1258 80.7993 20.7162 80.5084 21.2619C80.2218 21.7991 79.7984 22.2851 79.2389 22.7192V22.7189C78.6873 23.1481 78.0802 23.469 77.4187 23.6825C76.7608 23.8943 76.0499 24 75.2867 24H71.1863C70.4223 24 69.7099 23.894 69.0505 23.6819C68.3908 23.4693 67.784 23.1481 67.2315 22.7177L67.2303 22.7192C66.6715 22.2854 66.2486 21.7994 65.9635 21.2633C65.6729 20.7167 65.5273 20.1261 65.5273 19.4922V10.2676C65.5273 9.87595 65.6435 9.56578 65.8763 9.33958C66.1082 9.11366 66.4262 9 66.8301 9H67.8555C68.2574 9 68.5748 9.11451 68.807 9.34184C69.0389 9.56889 69.1548 9.87849 69.1548 10.2676V11.985L75.2867 11.994V11.992C76.049 11.992 76.7593 12.0983 77.4164 12.3101V12.3124C78.0831 12.5273 78.6908 12.8482 79.2389 13.2729L79.241 13.2751C79.7984 13.7094 80.2212 14.1943 80.5072 14.7293L80.5081 14.729C80.7993 15.2744 80.9455 15.8645 80.9455 16.5001V16.5051C80.9455 15.8719 81.0908 15.2825 81.3811 14.7371C81.6662 14.2017 82.0879 13.7168 82.6462 13.2823L82.6483 13.28C83.1993 12.8533 83.8079 12.5321 84.472 12.3184C85.1299 12.1065 85.8414 12 86.6043 12H91.7298ZM68.4182 19.5102C68.4182 19.7051 68.4585 19.8835 68.5387 20.0445C68.6236 20.2154 68.7559 20.3764 68.9341 20.5274L68.9347 20.5271C69.1233 20.6829 69.3328 20.8008 69.5626 20.8796C69.7968 20.9598 70.0552 21 70.3375 21H74.2115C74.4938 21 74.7522 20.9598 74.9861 20.8796C75.2154 20.8011 75.4235 20.6838 75.6091 20.5291C75.7895 20.3778 75.923 20.2163 76.0081 20.0445C76.0877 19.8838 76.1273 19.7057 76.1273 19.5102V16.4901C76.1273 16.2946 76.0877 16.1165 76.0081 15.9561C75.9235 15.786 75.7909 15.6259 75.6111 15.4766L75.6069 15.4726C75.4197 15.3148 75.2126 15.1972 74.9869 15.1193C74.7569 15.04 74.4979 15 74.2115 15H68.4182V19.5102ZM52.7727 20.6124V22.7324C52.7727 23.5796 52.3397 24 51.4736 24H50.4483C50.0458 24 49.7282 23.8872 49.4957 23.6613L49.4939 23.6593C49.2617 23.4334 49.1455 23.1243 49.1455 22.7324V10.2676C49.1455 9.87595 49.2617 9.56578 49.4945 9.33958C49.7264 9.11366 50.0444 9 50.4483 9H51.4736C51.8756 9 52.1929 9.11451 52.4251 9.34184C52.6571 9.56889 52.7727 9.87849 52.7727 10.2676V15.3799L60.7719 12.5247V12.525C61.2142 12.3528 61.5897 12.2233 61.8975 12.1376C62.2445 12.0407 62.5278 11.992 62.7464 11.992H63.2608C63.663 11.992 63.9818 12.106 64.214 12.3319C64.4465 12.5584 64.5636 12.8683 64.5636 13.2596C64.5636 13.5302 64.4895 13.7714 64.3413 13.9837C64.2018 14.1839 64.003 14.3439 63.7452 14.4644L63.7098 14.4805L54.5269 17.997L63.7098 21.505L63.7493 21.5231C64.0062 21.6456 64.2036 21.8062 64.3407 22.0018V22.0041C64.4892 22.2164 64.5636 22.4571 64.5636 22.7223C64.5636 23.1161 64.4474 23.4266 64.2169 23.6542C63.9827 23.8846 63.6633 24 63.2608 24H62.7464C62.5284 24 62.245 23.9514 61.8977 23.8552C61.5955 23.7713 61.22 23.6426 60.7722 23.4696L60.7719 23.4707L52.7727 20.6124ZM39.5091 16.5051C39.5091 15.8719 39.6454 15.2825 39.9171 14.7371C40.1836 14.2017 40.5785 13.7168 41.101 13.2823L41.1029 13.28C41.6185 12.8533 42.188 12.5321 42.8095 12.3184C43.4255 12.1065 44.091 12 44.805 12H46.9626C47.3409 12 47.6381 12.1139 47.8552 12.3394C48.073 12.5654 48.1818 12.8754 48.1818 13.2667V13.7666C48.1818 14.1571 48.0728 14.4653 47.8541 14.6919C47.6365 14.9171 47.3395 15.0299 46.9626 15.0299H44.805C44.5257 15.0299 44.2697 15.07 44.0375 15.1497C43.8101 15.2277 43.6034 15.3444 43.4174 15.4995C43.2392 15.6481 43.1076 15.8075 43.0233 15.9765C42.9439 16.1358 42.9039 16.3121 42.9039 16.5051V22.7333C42.9039 23.5798 42.4986 24 41.6879 24H40.7284C40.3517 24 40.0544 23.8873 39.8368 23.6615L39.8349 23.6595C39.6179 23.4338 39.5091 23.1249 39.5091 22.7333V16.5051ZM38.5455 19.4952C38.5455 20.1284 38.3993 20.7184 38.1083 21.2637C37.8218 21.8006 37.3983 22.2863 36.8389 22.72V22.7197C36.2876 23.1486 35.6801 23.4694 35.0187 23.6827C34.3607 23.8943 33.6498 24 32.8866 24H28.7861C28.0221 24 27.3094 23.894 26.6503 23.6821C25.9906 23.4696 25.3837 23.1486 24.8312 22.7186L24.8301 22.72C24.2709 22.2866 23.8483 21.8008 23.5632 21.2651C23.2726 20.7189 23.1273 20.1287 23.1273 19.4952V16.5051C23.1273 15.8719 23.2726 15.2825 23.5626 14.7371C23.8477 14.2017 24.2697 13.7168 24.828 13.2823L24.8301 13.28C25.3811 12.8533 25.9897 12.5321 26.6538 12.3184C27.3118 12.1065 28.0232 12 28.7861 12H32.8866C33.6492 12 34.3592 12.1062 35.0163 12.3179V12.3201C35.683 12.5349 36.2908 12.8556 36.8389 13.28L36.8409 13.2823C37.3983 13.7163 37.8212 14.2009 38.1069 14.7355L38.1081 14.7352C38.3993 15.2802 38.5455 15.8699 38.5455 16.5051V19.4952ZM26.9818 19.5102C26.9818 19.7051 27.0222 19.8835 27.1024 20.0445C27.1872 20.2154 27.3198 20.3764 27.498 20.5274L27.4983 20.5271C27.6869 20.6829 27.8964 20.8008 28.1262 20.8796C28.3604 20.9598 28.6188 21 28.9011 21H32.775C33.0572 21 33.3159 20.9598 33.5495 20.8796C33.7788 20.8011 33.9869 20.6838 34.1722 20.5291C34.3529 20.3778 34.4864 20.2163 34.5715 20.0445C34.6508 19.8838 34.6909 19.7057 34.6909 19.5102V16.4901C34.6909 16.2946 34.6508 16.1165 34.5715 15.9561C34.4869 15.786 34.3543 15.6259 34.1744 15.4766L34.1703 15.4726C33.9831 15.3148 33.776 15.1972 33.5503 15.1193C33.3203 15.04 33.0613 15 32.775 15H28.9011C28.6191 15 28.3607 15.0405 28.1262 15.121C27.8967 15.1998 27.6877 15.3177 27.5002 15.4743C27.3206 15.6245 27.1875 15.7854 27.1024 15.9561C27.0222 16.1171 26.9818 16.2952 26.9818 16.4901V19.5102ZM12.5273 12.8976L14.8591 4L19.1924 21.0076C19.3564 21.6335 19.2617 22.2742 18.9771 22.8016C18.6927 23.3288 18.2178 23.7427 17.6223 23.9153L17.6028 23.9211C17.014 24.0859 16.4125 23.9851 15.9165 23.6888C15.4152 23.3896 15.0217 22.8903 14.8575 22.2638L12.5273 12.8976ZM20.5989 20L18.3091 11.1023L20.7195 1.73592C20.8808 1.10976 21.2671 0.610205 21.7594 0.31116C22.2464 0.0149794 22.837 -0.085848 23.4151 0.0788558L23.4339 0.0845847C24.0187 0.257309 24.4852 0.671217 24.7642 1.19856C25.0436 1.72589 25.1366 2.36638 24.9759 2.99225L20.5989 20Z" fill="#719FE4"/>
</svg>
