<svg width="36" height="36" viewBox="0 0 36 36" fill="none" xmlns="http://www.w3.org/2000/svg">
<path fill-rule="evenodd" clip-rule="evenodd" d="M17.9977 0C8.07492 0 0 8.07582 0 17.9986C0 27.9251 8.07492 36 17.9977 36C27.9242 36 36 27.9251 36 17.9986C36 8.07582 27.9242 0 17.9977 0ZM15.9233 26.7641C15.2435 26.9617 14.5076 27.0614 13.7355 27.0614C12.8754 27.0614 12.0507 26.9617 11.2786 26.7678C9.78867 26.3917 8.68754 25.6766 8.17097 24.7567C7.94802 24.3598 7.83746 23.9384 7.83746 23.4961C7.83746 23.0466 7.9444 22.5862 8.15646 22.1331C8.97393 20.3912 11.13 19.2194 13.5162 19.2194H13.5832C13.3884 18.8795 13.2969 18.5261 13.2969 18.1545C13.2969 17.9705 13.3213 17.782 13.3712 17.5881C10.868 17.531 8.99568 15.7012 8.99568 13.2833C8.99568 11.5768 10.3587 9.91647 12.309 9.24402C12.8936 9.04192 13.4881 8.93951 14.0717 8.93951H19.4251C19.6054 8.93951 19.7677 9.05642 19.8248 9.22952C19.8819 9.40261 19.8175 9.59384 19.6725 9.70078L18.4762 10.5681C18.4019 10.617 18.3167 10.6451 18.2279 10.6451H17.8001C18.3521 11.3076 18.6774 12.2565 18.6774 13.3186C18.6774 14.4904 18.0829 15.5979 17.0035 16.4408C16.1716 17.0924 16.1362 17.2727 16.1362 17.6407C16.1462 17.8464 16.7271 18.5116 17.3679 18.9647C18.8614 20.0196 19.4179 21.0537 19.4179 22.7847C19.4179 24.5864 18.0439 26.1479 15.9233 26.7641ZM28.0094 17.5845C28.0094 17.8183 27.8218 18.0059 27.5916 18.0059H24.5474V21.0464C24.5474 21.2803 24.3598 21.4679 24.1296 21.4679H23.2623C23.0285 21.4679 22.8409 21.2803 22.8409 21.0464V18.0059H19.8003C19.5701 18.0059 19.3789 17.8183 19.3789 17.5845V16.7208C19.3789 16.487 19.5701 16.2957 19.8003 16.2957H22.8409V13.2579C22.8409 13.0241 23.0285 12.8365 23.2623 12.8365H24.1296C24.3598 12.8365 24.5474 13.0241 24.5474 13.2579V16.2957H27.5916C27.8218 16.2957 28.0094 16.487 28.0094 16.7172V17.5845Z" fill="white"/>
</svg>
