<svg width="0" height="0" class="hidden">
  <symbol xmlns="http://www.w3.org/2000/svg" viewBox="0 0 25 24" id="btn-settings">
    <path d="M19.296 12c0 .34-.03.66-.07.98l2.11 1.65c.19.15.24.42.12.64l-2 3.46c-.09.16-.26.25-.43.25-.06 0-.12-.01-.18-.03l-2.49-1c-.52.39-1.08.73-1.69.98l-.38 2.65c-.03.24-.24.42-.49.42h-4c-.25 0-.46-.18-.49-.42l-.38-2.65c-.61-.25-1.17-.58-1.69-.98l-2.49 1a.5.5 0 01-.61-.22l-2-3.46a.505.505 0 01.12-.64l2.11-1.65a7.93 7.93 0 01-.07-.98c0-.33.03-.66.07-.98l-2.11-1.65a.493.493 0 01-.12-.64l2-3.46c.09-.16.26-.25.43-.25.06 0 .12.01.18.03l2.49 1c.52-.39 1.08-.73 1.69-.98l.38-2.65c.03-.24.24-.42.49-.42h4c.25 0 .46.18.49.42l.38 2.65c.61.25 1.17.58 1.69.98l2.49-1a.5.5 0 01.61.22l2 3.46c.12.22.07.49-.12.64l-2.11 1.65c.04.32.07.64.07.98zm-2 0c0-.21-.01-.42-.05-.73l-.14-1.13.89-.7 1.07-.85-.7-1.21-1.27.51-1.06.43-.91-.7c-.4-.3-.8-.53-1.23-.71l-1.06-.43-.16-1.13-.19-1.35h-1.39l-.2 1.35-.16 1.13-1.06.43c-.41.17-.82.41-1.25.73l-.9.68-1.04-.42-1.27-.51-.7 1.21 1.08.84.89.7-.14 1.13c-.03.3-.05.53-.05.73 0 .2.02.43.05.74l.14 1.13-.89.7-1.08.84.7 1.21 1.27-.51 1.06-.43.91.7c.4.3.8.53 1.23.71l1.06.43.16 1.13.19 1.35h1.4l.2-1.35.16-1.13 1.06-.43c.41-.17.82-.41 1.25-.73l.9-.68 1.04.42 1.27.51.7-1.21-1.08-.84-.89-.7.14-1.13c.03-.3.05-.52.05-.73zm-5.5-4c-2.21 0-4 1.79-4 4s1.79 4 4 4 4-1.79 4-4-1.79-4-4-4zm-2 4c0 1.1.9 2 2 2s2-.9 2-2-.9-2-2-2-2 .9-2 2z"></path>
  </symbol>
  <symbol xmlns="http://www.w3.org/2000/svg" viewBox="0 0 25 24" id="btn-search">
    <path d="M14.776 14h.79l4.99 5-1.49 1.49-5-4.99v-.79l-.27-.28A6.471 6.471 0 019.566 16a6.5 6.5 0 116.5-6.5c0 1.61-.59 3.09-1.57 4.23l.28.27zm-9.71-4.5c0 2.49 2.01 4.5 4.5 4.5s4.5-2.01 4.5-4.5-2.01-4.5-4.5-4.5-4.5 2.01-4.5 4.5z"></path>
  </symbol>
  <symbol xmlns="http://www.w3.org/2000/svg" viewBox="0 0 15 20" id="btn-favorites">
    <path d="M7.066 13.055l1.066 1.28h.472l-.236.283 4.23 5.081a.825.825 0 00.924.247.864.864 0 00.544-.81V.864c0-.478-.374-.865-.835-.865H.902C.441 0 .066.387.066.865v18.27c0 .362.218.685.545.81a.817.817 0 00.925-.246l4.23-5.081-.237-.284h.472l1.065-1.28zM2.066 2h10v13.935l-3.462-4.16L7.066 9.93l-5 6.006V2z"></path>
  </symbol>
  <symbol xmlns="http://www.w3.org/2000/svg" viewBox="0 0 24 24" id="btn-more">
    <path d="M5 14C6.10457 14 7 13.1046 7 12C7 10.8954 6.10457 10 5 10C3.89543 10 3 10.8954 3 12C3 13.1046 3.89543 14 5 14ZM14 12C14 13.1046 13.1046 14 12 14C10.8954 14 10 13.1046 10 12C10 10.8954 10.8954 10 12 10C13.1046 10 14 10.8954 14 12ZM21 12C21 13.1046 20.1046 14 19 14C17.8954 14 17 13.1046 17 12C17 10.8954 17.8954 10 19 10C20.1046 10 21 10.8954 21 12Z"/>
  </symbol>
  <symbol xmlns="http://www.w3.org/2000/svg" viewBox="0 0 24 24" id="btn-share">
    <path d="M8 16H16V13H18V16C18 17.1 17.1 18 16 18H8C6.89 18 6 17.1 6 16V8C6 6.9 6.89 6 8 6H11V8H8V16ZM13 8V6H18V11H16V9.41L11.4116 13.9994L10.0016 12.5894L14.59 8H13Z"/>
  </symbol>
  <symbol xmlns="http://www.w3.org/2000/svg" viewBox="0 0 24 24" id="btn-like">
    <path d="M15.1468 6C14.0095 6 12.9819 6.62688 12.5039 7.60335C12.0254 6.62688 10.9852 6 9.84791 6C8.07091 6 5.68777 7.50698 6.77288 11.6189C8.01293 15.637 12.5034 18.001 12.5034 18C12.5034 18.001 16.9876 15.6385 18.2276 11.6189C19.3127 7.50698 16.9233 6 15.1468 6Z"/>
  </symbol>
<symbol xmlns="http://www.w3.org/2000/svg" viewBox="-4 -4 16 20" id="btn-save">
     <path d="M7.52239 0.5H0.477612C0.213851 0.5 0 0.713851 0 0.977612V11.0672C0 11.2668 0.124179 11.4454 0.311284 11.5149C0.498866 11.5844 0.709134 11.5301 0.839522 11.3787L4 7.70943L7.16048 11.3787C7.25302 11.4861 7.38627 11.5448 7.52251 11.5448C7.57815 11.5448 7.63451 11.535 7.68872 11.5149C7.87582 11.4454 8 11.2668 8 11.0672V0.977612C8 0.713851 7.78615 0.5 7.52239 0.5Z"/>
  </symbol>
  <symbol xmlns="http://www.w3.org/2000/svg" viewBox="0 0 24 24" id="btn-back">
     <path d="M20 11H7.83L13.42 5.41L12 4L4 12L12 20L13.41 18.59L7.83 13H20V11Z"/>
  </symbol>
  <symbol xmlns="http://www.w3.org/2000/svg" viewBox="0 0 384 512" id="btn-location"><path d="M192 0C85.97 0 0 85.97 0 192c0 77.41 26.97 99.03 172.3 309.7c9.531 13.77 29.91 13.77 39.44 0C357 291 384 269.4 384 192C384 85.97 298 0 192 0zM192 271.1c-44.13 0-80-35.88-80-80S147.9 111.1 192 111.1s80 35.88 80 80S236.1 271.1 192 271.1z" />
  </symbol>
  <symbol xmlns="http://www.w3.org/2000/svg" xmlns:xlink="http://www.w3.org/1999/xlink" style="margin: auto; background: none; display: block; shape-rendering: auto;" width="60px" height="60px" viewBox="0 0 100 100" preserveAspectRatio="xMidYMid" id="spinner">
    <g transform="rotate(0 50 50)">
      <rect x="47" y="24" rx="3" ry="6" width="6" height="12" fill="#337ab7">
        <animate attributeName="opacity" values="1;0" keyTimes="0;1" dur="1s" begin="-0.9166666666666666s" repeatCount="indefinite"></animate>
      </rect>
    </g><g transform="rotate(30 50 50)">
      <rect x="47" y="24" rx="3" ry="6" width="6" height="12" fill="#337ab7">
        <animate attributeName="opacity" values="1;0" keyTimes="0;1" dur="1s" begin="-0.8333333333333334s" repeatCount="indefinite"></animate>
      </rect>
    </g><g transform="rotate(60 50 50)">
      <rect x="47" y="24" rx="3" ry="6" width="6" height="12" fill="#337ab7">
        <animate attributeName="opacity" values="1;0" keyTimes="0;1" dur="1s" begin="-0.75s" repeatCount="indefinite"></animate>
      </rect>
    </g><g transform="rotate(90 50 50)">
      <rect x="47" y="24" rx="3" ry="6" width="6" height="12" fill="#337ab7">
        <animate attributeName="opacity" values="1;0" keyTimes="0;1" dur="1s" begin="-0.6666666666666666s" repeatCount="indefinite"></animate>
      </rect>
    </g><g transform="rotate(120 50 50)">
      <rect x="47" y="24" rx="3" ry="6" width="6" height="12" fill="#337ab7">
        <animate attributeName="opacity" values="1;0" keyTimes="0;1" dur="1s" begin="-0.5833333333333334s" repeatCount="indefinite"></animate>
      </rect>
    </g><g transform="rotate(150 50 50)">
      <rect x="47" y="24" rx="3" ry="6" width="6" height="12" fill="#337ab7">
        <animate attributeName="opacity" values="1;0" keyTimes="0;1" dur="1s" begin="-0.5s" repeatCount="indefinite"></animate>
      </rect>
    </g><g transform="rotate(180 50 50)">
      <rect x="47" y="24" rx="3" ry="6" width="6" height="12" fill="#337ab7">
        <animate attributeName="opacity" values="1;0" keyTimes="0;1" dur="1s" begin="-0.4166666666666667s" repeatCount="indefinite"></animate>
      </rect>
    </g><g transform="rotate(210 50 50)">
      <rect x="47" y="24" rx="3" ry="6" width="6" height="12" fill="#337ab7">
        <animate attributeName="opacity" values="1;0" keyTimes="0;1" dur="1s" begin="-0.3333333333333333s" repeatCount="indefinite"></animate>
      </rect>
    </g><g transform="rotate(240 50 50)">
      <rect x="47" y="24" rx="3" ry="6" width="6" height="12" fill="#337ab7">
        <animate attributeName="opacity" values="1;0" keyTimes="0;1" dur="1s" begin="-0.25s" repeatCount="indefinite"></animate>
      </rect>
    </g><g transform="rotate(270 50 50)">
      <rect x="47" y="24" rx="3" ry="6" width="6" height="12" fill="#337ab7">
        <animate attributeName="opacity" values="1;0" keyTimes="0;1" dur="1s" begin="-0.16666666666666666s" repeatCount="indefinite"></animate>
      </rect>
    </g><g transform="rotate(300 50 50)">
      <rect x="47" y="24" rx="3" ry="6" width="6" height="12" fill="#337ab7">
        <animate attributeName="opacity" values="1;0" keyTimes="0;1" dur="1s" begin="-0.08333333333333333s" repeatCount="indefinite"></animate>
      </rect>
    </g><g transform="rotate(330 50 50)">
      <rect x="47" y="24" rx="3" ry="6" width="6" height="12" fill="#337ab7">
        <animate attributeName="opacity" values="1;0" keyTimes="0;1" dur="1s" begin="0s" repeatCount="indefinite"></animate>
      </rect>
    </g>
    <!-- [ldio] generated by https://loading.io/ -->
  </symbol>
</svg>