<svg width="0" height="0" class="hidden">
  <symbol xmlns="http://www.w3.org/2000/svg" viewBox="0 0 25 24" id="btn-settings">
    <path d="M19.296 12c0 .34-.03.66-.07.98l2.11 1.65c.19.15.24.42.12.64l-2 3.46c-.09.16-.26.25-.43.25-.06 0-.12-.01-.18-.03l-2.49-1c-.52.39-1.08.73-1.69.98l-.38 2.65c-.03.24-.24.42-.49.42h-4c-.25 0-.46-.18-.49-.42l-.38-2.65c-.61-.25-1.17-.58-1.69-.98l-2.49 1a.5.5 0 01-.61-.22l-2-3.46a.505.505 0 01.12-.64l2.11-1.65a7.93 7.93 0 01-.07-.98c0-.33.03-.66.07-.98l-2.11-1.65a.493.493 0 01-.12-.64l2-3.46c.09-.16.26-.25.43-.25.06 0 .12.01.18.03l2.49 1c.52-.39 1.08-.73 1.69-.98l.38-2.65c.03-.24.24-.42.49-.42h4c.25 0 .46.18.49.42l.38 2.65c.61.25 1.17.58 1.69.98l2.49-1a.5.5 0 01.61.22l2 3.46c.12.22.07.49-.12.64l-2.11 1.65c.04.32.07.64.07.98zm-2 0c0-.21-.01-.42-.05-.73l-.14-1.13.89-.7 1.07-.85-.7-1.21-1.27.51-1.06.43-.91-.7c-.4-.3-.8-.53-1.23-.71l-1.06-.43-.16-1.13-.19-1.35h-1.39l-.2 1.35-.16 1.13-1.06.43c-.41.17-.82.41-1.25.73l-.9.68-1.04-.42-1.27-.51-.7 1.21 1.08.84.89.7-.14 1.13c-.03.3-.05.53-.05.73 0 .2.02.43.05.74l.14 1.13-.89.7-1.08.84.7 1.21 1.27-.51 1.06-.43.91.7c.4.3.8.53 1.23.71l1.06.43.16 1.13.19 1.35h1.4l.2-1.35.16-1.13 1.06-.43c.41-.17.82-.41 1.25-.73l.9-.68 1.04.42 1.27.51.7-1.21-1.08-.84-.89-.7.14-1.13c.03-.3.05-.52.05-.73zm-5.5-4c-2.21 0-4 1.79-4 4s1.79 4 4 4 4-1.79 4-4-1.79-4-4-4zm-2 4c0 1.1.9 2 2 2s2-.9 2-2-.9-2-2-2-2 .9-2 2z"></path>
  </symbol>
  <symbol xmlns="http://www.w3.org/2000/svg" viewBox="0 0 25 24" id="btn-search">
    <path d="M14.776 14h.79l4.99 5-1.49 1.49-5-4.99v-.79l-.27-.28A6.471 6.471 0 019.566 16a6.5 6.5 0 116.5-6.5c0 1.61-.59 3.09-1.57 4.23l.28.27zm-9.71-4.5c0 2.49 2.01 4.5 4.5 4.5s4.5-2.01 4.5-4.5-2.01-4.5-4.5-4.5-4.5 2.01-4.5 4.5z"></path>
  </symbol>
  <symbol xmlns="http://www.w3.org/2000/svg" viewBox="0 0 15 20" id="btn-favorites">
    <path d="M7.066 13.055l1.066 1.28h.472l-.236.283 4.23 5.081a.825.825 0 00.924.247.864.864 0 00.544-.81V.864c0-.478-.374-.865-.835-.865H.902C.441 0 .066.387.066.865v18.27c0 .362.218.685.545.81a.817.817 0 00.925-.246l4.23-5.081-.237-.284h.472l1.065-1.28zM2.066 2h10v13.935l-3.462-4.16L7.066 9.93l-5 6.006V2z"></path>
  </symbol>
  <symbol xmlns="http://www.w3.org/2000/svg" viewBox="0 0 24 24" id="btn-more">
    <path d="M5 14C6.10457 14 7 13.1046 7 12C7 10.8954 6.10457 10 5 10C3.89543 10 3 10.8954 3 12C3 13.1046 3.89543 14 5 14ZM14 12C14 13.1046 13.1046 14 12 14C10.8954 14 10 13.1046 10 12C10 10.8954 10.8954 10 12 10C13.1046 10 14 10.8954 14 12ZM21 12C21 13.1046 20.1046 14 19 14C17.8954 14 17 13.1046 17 12C17 10.8954 17.8954 10 19 10C20.1046 10 21 10.8954 21 12Z"/>
  </symbol>
  <symbol xmlns="http://www.w3.org/2000/svg" viewBox="0 0 24 24" id="btn-share">
    <path d="M8 16H16V13H18V16C18 17.1 17.1 18 16 18H8C6.89 18 6 17.1 6 16V8C6 6.9 6.89 6 8 6H11V8H8V16ZM13 8V6H18V11H16V9.41L11.4116 13.9994L10.0016 12.5894L14.59 8H13Z"/>
  </symbol>
  <symbol xmlns="http://www.w3.org/2000/svg" viewBox="0 0 24 24" id="btn-like">
    <path d="M15.1468 6C14.0095 6 12.9819 6.62688 12.5039 7.60335C12.0254 6.62688 10.9852 6 9.84791 6C8.07091 6 5.68777 7.50698 6.77288 11.6189C8.01293 15.637 12.5034 18.001 12.5034 18C12.5034 18.001 16.9876 15.6385 18.2276 11.6189C19.3127 7.50698 16.9233 6 15.1468 6Z"/>
  </symbol>
<symbol xmlns="http://www.w3.org/2000/svg" viewBox="-4 -4 16 20" id="btn-save">
     <path d="M7.52239 0.5H0.477612C0.213851 0.5 0 0.713851 0 0.977612V11.0672C0 11.2668 0.124179 11.4454 0.311284 11.5149C0.498866 11.5844 0.709134 11.5301 0.839522 11.3787L4 7.70943L7.16048 11.3787C7.25302 11.4861 7.38627 11.5448 7.52251 11.5448C7.57815 11.5448 7.63451 11.535 7.68872 11.5149C7.87582 11.4454 8 11.2668 8 11.0672V0.977612C8 0.713851 7.78615 0.5 7.52239 0.5Z"/>
  </symbol>
  <symbol xmlns="http://www.w3.org/2000/svg" viewBox="0 0 24 24" id="btn-back">
     <path d="M20 11H7.83L13.42 5.41L12 4L4 12L12 20L13.41 18.59L7.83 13H20V11Z"/>
  </symbol>
  <symbol xmlns="http://www.w3.org/2000/svg" viewBox="0 0 384 512" id="btn-location"><path d="M192 0C85.97 0 0 85.97 0 192c0 77.41 26.97 99.03 172.3 309.7c9.531 13.77 29.91 13.77 39.44 0C357 291 384 269.4 384 192C384 85.97 298 0 192 0zM192 271.1c-44.13 0-80-35.88-80-80S147.9 111.1 192 111.1s80 35.88 80 80S236.1 271.1 192 271.1z" />
  </symbol>
  <symbol xmlns="http://www.w3.org/2000/svg" xmlns:xlink="http://www.w3.org/1999/xlink" style="margin: auto; background: none; display: block; shape-rendering: auto;" width="60px" height="60px" viewBox="0 0 100 100" preserveAspectRatio="xMidYMid" id="spinner">
    <g transform="rotate(0 50 50)">
      <rect x="47" y="24" rx="3" ry="6" width="6" height="12" fill="#337ab7">
        <animate attributeName="opacity" values="1;0" keyTimes="0;1" dur="1s" begin="-0.9166666666666666s" repeatCount="indefinite"></animate>
      </rect>
    </g><g transform="rotate(30 50 50)">
      <rect x="47" y="24" rx="3" ry="6" width="6" height="12" fill="#337ab7">
        <animate attributeName="opacity" values="1;0" keyTimes="0;1" dur="1s" begin="-0.8333333333333334s" repeatCount="indefinite"></animate>
      </rect>
    </g><g transform="rotate(60 50 50)">
      <rect x="47" y="24" rx="3" ry="6" width="6" height="12" fill="#337ab7">
        <animate attributeName="opacity" values="1;0" keyTimes="0;1" dur="1s" begin="-0.75s" repeatCount="indefinite"></animate>
      </rect>
    </g><g transform="rotate(90 50 50)">
      <rect x="47" y="24" rx="3" ry="6" width="6" height="12" fill="#337ab7">
        <animate attributeName="opacity" values="1;0" keyTimes="0;1" dur="1s" begin="-0.6666666666666666s" repeatCount="indefinite"></animate>
      </rect>
    </g><g transform="rotate(120 50 50)">
      <rect x="47" y="24" rx="3" ry="6" width="6" height="12" fill="#337ab7">
        <animate attributeName="opacity" values="1;0" keyTimes="0;1" dur="1s" begin="-0.5833333333333334s" repeatCount="indefinite"></animate>
      </rect>
    </g><g transform="rotate(150 50 50)">
      <rect x="47" y="24" rx="3" ry="6" width="6" height="12" fill="#337ab7">
        <animate attributeName="opacity" values="1;0" keyTimes="0;1" dur="1s" begin="-0.5s" repeatCount="indefinite"></animate>
      </rect>
    </g><g transform="rotate(180 50 50)">
      <rect x="47" y="24" rx="3" ry="6" width="6" height="12" fill="#337ab7">
        <animate attributeName="opacity" values="1;0" keyTimes="0;1" dur="1s" begin="-0.4166666666666667s" repeatCount="indefinite"></animate>
      </rect>
    </g><g transform="rotate(210 50 50)">
      <rect x="47" y="24" rx="3" ry="6" width="6" height="12" fill="#337ab7">
        <animate attributeName="opacity" values="1;0" keyTimes="0;1" dur="1s" begin="-0.3333333333333333s" repeatCount="indefinite"></animate>
      </rect>
    </g><g transform="rotate(240 50 50)">
      <rect x="47" y="24" rx="3" ry="6" width="6" height="12" fill="#337ab7">
        <animate attributeName="opacity" values="1;0" keyTimes="0;1" dur="1s" begin="-0.25s" repeatCount="indefinite"></animate>
      </rect>
    </g><g transform="rotate(270 50 50)">
      <rect x="47" y="24" rx="3" ry="6" width="6" height="12" fill="#337ab7">
        <animate attributeName="opacity" values="1;0" keyTimes="0;1" dur="1s" begin="-0.16666666666666666s" repeatCount="indefinite"></animate>
      </rect>
    </g><g transform="rotate(300 50 50)">
      <rect x="47" y="24" rx="3" ry="6" width="6" height="12" fill="#337ab7">
        <animate attributeName="opacity" values="1;0" keyTimes="0;1" dur="1s" begin="-0.08333333333333333s" repeatCount="indefinite"></animate>
      </rect>
    </g><g transform="rotate(330 50 50)">
      <rect x="47" y="24" rx="3" ry="6" width="6" height="12" fill="#337ab7">
        <animate attributeName="opacity" values="1;0" keyTimes="0;1" dur="1s" begin="0s" repeatCount="indefinite"></animate>
      </rect>
    </g>
    <!-- [ldio] generated by https://loading.io/ -->
  </symbol>
  <symbol width="24" height="24" viewBox="0 0 24 24" id="btn-close" xmlns="http://www.w3.org/2000/svg">
    <path d="M19 6.41L17.59 5L12 10.59L6.41 5L5 6.41L10.59 12L5 17.59L6.41 19L12 13.41L17.59 19L19 17.59L13.41 12L19 6.41Z"/>
  </symbol>
  <symbol width="36" height="36" viewBox="0 0 36 36" id="btn-google+" xmlns="http://www.w3.org/2000/svg">
    <path fill-rule="evenodd" clip-rule="evenodd" d="M17.9977 0C8.07492 0 0 8.07582 0 17.9986C0 27.9251 8.07492 36 17.9977 36C27.9242 36 36 27.9251 36 17.9986C36 8.07582 27.9242 0 17.9977 0ZM15.9233 26.7641C15.2435 26.9617 14.5076 27.0614 13.7355 27.0614C12.8754 27.0614 12.0507 26.9617 11.2786 26.7678C9.78867 26.3917 8.68754 25.6766 8.17097 24.7567C7.94802 24.3598 7.83746 23.9384 7.83746 23.4961C7.83746 23.0466 7.9444 22.5862 8.15646 22.1331C8.97393 20.3912 11.13 19.2194 13.5162 19.2194H13.5832C13.3884 18.8795 13.2969 18.5261 13.2969 18.1545C13.2969 17.9705 13.3213 17.782 13.3712 17.5881C10.868 17.531 8.99568 15.7012 8.99568 13.2833C8.99568 11.5768 10.3587 9.91647 12.309 9.24402C12.8936 9.04192 13.4881 8.93951 14.0717 8.93951H19.4251C19.6054 8.93951 19.7677 9.05642 19.8248 9.22952C19.8819 9.40261 19.8175 9.59384 19.6725 9.70078L18.4762 10.5681C18.4019 10.617 18.3167 10.6451 18.2279 10.6451H17.8001C18.3521 11.3076 18.6774 12.2565 18.6774 13.3186C18.6774 14.4904 18.0829 15.5979 17.0035 16.4408C16.1716 17.0924 16.1362 17.2727 16.1362 17.6407C16.1462 17.8464 16.7271 18.5116 17.3679 18.9647C18.8614 20.0196 19.4179 21.0537 19.4179 22.7847C19.4179 24.5864 18.0439 26.1479 15.9233 26.7641ZM28.0094 17.5845C28.0094 17.8183 27.8218 18.0059 27.5916 18.0059H24.5474V21.0464C24.5474 21.2803 24.3598 21.4679 24.1296 21.4679H23.2623C23.0285 21.4679 22.8409 21.2803 22.8409 21.0464V18.0059H19.8003C19.5701 18.0059 19.3789 17.8183 19.3789 17.5845V16.7208C19.3789 16.487 19.5701 16.2957 19.8003 16.2957H22.8409V13.2579C22.8409 13.0241 23.0285 12.8365 23.2623 12.8365H24.1296C24.3598 12.8365 24.5474 13.0241 24.5474 13.2579V16.2957H27.5916C27.8218 16.2957 28.0094 16.487 28.0094 16.7172V17.5845Z"/>
  </symbol>
  <symbol width="36" height="36" viewBox="0 0 36 36" id="btn-twitter+" xmlns="http://www.w3.org/2000/svg">
    <path fill-rule="evenodd" clip-rule="evenodd" d="M0 18C0 8.07484 8.07484 0 18 0C27.9259 0 36 8.07484 36 18C36 27.9244 27.9244 36 18 36C8.07484 36 0 27.9244 0 18ZM26.0422 14.4183C26.0422 14.2385 26.0379 14.0586 26.0299 13.8803C26.8398 13.2981 27.5423 12.568 28.0948 11.7385C27.3545 12.0684 26.5541 12.2903 25.7152 12.3903C26.5729 11.877 27.2277 11.0657 27.5394 10.0977C26.7368 10.5741 25.8523 10.9177 24.9075 11.1034C24.1506 10.2986 23.0753 9.79538 21.8833 9.79538C19.5958 9.79538 17.7412 11.6508 17.7412 13.9383C17.7412 14.2638 17.7767 14.5792 17.8477 14.883C14.4052 14.709 11.3513 13.0603 9.30887 10.553C8.95215 11.165 8.74841 11.877 8.74841 12.6368C8.74841 14.0739 9.47998 15.3427 10.5908 16.0844C9.91211 16.0634 9.27334 15.8763 8.71506 15.5667C8.71433 15.5834 8.71433 15.6015 8.71433 15.6189C8.71433 17.6273 10.1419 19.3015 12.0372 19.6814C11.6899 19.7764 11.323 19.8257 10.9453 19.8257C10.6792 19.8257 10.4189 19.7988 10.1666 19.751C10.6937 21.3976 12.2243 22.5953 14.0369 22.6287C12.6187 23.7395 10.8329 24.4022 8.89124 24.4022C8.557 24.4022 8.2271 24.3826 7.90301 24.3442C9.73592 25.5202 11.914 26.2039 14.2537 26.2039C21.8761 26.2039 26.0422 19.8931 26.0422 14.4183Z"/>
  </symbol>
  <symbol width="36" height="36" viewBox="0 0 36 36" id="btn-facebook" xmlns="http://www.w3.org/2000/svg">
    <path fill-rule="evenodd" clip-rule="evenodd" d="M0 18C0 8.07484 8.07484 0 18 0C27.9259 0 36 8.07484 36 18C36 27.9244 27.9244 36 18 36C8.07484 36 0 27.9244 0 18ZM19.548 18.6337H22.4764L22.8556 14.9454H19.5494V12.7775C19.5494 11.9625 20.0896 11.7726 20.4695 11.7726H22.8034V8.19157L19.5879 8.17925C16.0206 8.17925 15.2086 10.8496 15.2086 12.5585V14.9447H13.1458V18.6337H15.2086V29.0715H19.548V18.6337Z"/>
  </symbol>
  <symbol width="24" height="24" viewBox="0 0 24 24" id="btn-signout" xmlns="http://www.w3.org/2000/svg">
    <path fill-rule="evenodd" clip-rule="evenodd" d="M11 3H13V13H11V3ZM16.41 6.59L17.83 5.17C19.77 6.82 21 9.26 21 12C21 16.97 16.97 21 12 21C7.03 21 3 16.97 3 12C3 9.26 4.23 6.82 6.17 5.17L7.58 6.58C6.01 7.86 5 9.81 5 12C5 15.87 8.13 19 12 19C15.87 19 19 15.87 19 12C19 9.81 17.99 7.86 16.41 6.59Z"/>
</symbol>
  <symbol width="24" height="24" viewBox="0 0 24 24" id="btn-toggledown" xmlns="http://www.w3.org/2000/svg">
    <path fill-rule="evenodd" clip-rule="evenodd" d="M12 13.3333L17.6 8L19 9.33333L12 16L5 9.33333L6.4 8L12 13.3333Z"/>
  </symbol>
  <symbol width="24" height="24" viewBox="0 0 24 24" id="btn-toggleup" xmlns="http://www.w3.org/2000/svg">
    <path fill-rule="evenodd" clip-rule="evenodd" d="M12 10.6667L6.4 16L5 14.6667L12 8L19 14.6667L17.6 16L12 10.6667Z"/>
  </symbol>
  <symbol width="24" height="24" viewBox="0 0 24 24" id="btn-trash" xmlns="http://www.w3.org/2000/svg">
    <path fill-rule="evenodd" clip-rule="evenodd" d="M13.5 0L14.5 1H18V3H0V1H3.5L4.5 0H13.5ZM1 19.0527C1 20.1527 1.9 21.0527 3 21.0527H15C16.1 21.0527 17 20.1527 17 19.0527V4.05273H1V19.0527ZM3 6.05273H15V19.0527H3V6.05273Z"/>
  </symbol>
  <symbol width="24" height="24" viewBox="0 0 24 24" id="btn-photo" xmlns="http://www.w3.org/2000/svg">
    <path fill-rule="evenodd" clip-rule="evenodd" d="M9.46953 4.26514L7.91403 5.9318H5.21953C4.28453 5.9318 3.51953 6.6818 3.51953 7.59847V17.5985C3.51953 18.5151 4.28453 19.2651 5.21953 19.2651H18.8195C19.7545 19.2651 20.5195 18.5151 20.5195 17.5985V7.59847C20.5195 6.6818 19.7545 5.9318 18.8195 5.9318H16.125L14.5695 4.26514H9.46953ZM12.0195 17.2651C9.53553 17.2651 7.51953 15.2491 7.51953 12.7651C7.51953 10.2811 9.53553 8.26514 12.0195 8.26514C14.5035 8.26514 16.5195 10.2811 16.5195 12.7651C16.5195 15.2491 14.5035 17.2651 12.0195 17.2651ZM12.0195 15.2651C13.4002 15.2651 14.5195 14.1458 14.5195 12.7651C14.5195 11.3844 13.4002 10.2651 12.0195 10.2651C10.6388 10.2651 9.51953 11.3844 9.51953 12.7651C9.51953 14.1458 10.6388 15.2651 12.0195 15.2651Z"/>
  </symbol>
  <symbol xmlns="http://www.w3.org/2000/svg" width="24px" height="24px" viewBox="0 0 24 24" id="btn-no_acc" ><path d="M15.18,10.94c0.2-0.44,0.32-0.92,0.32-1.44C15.5,7.57,13.93,6,12,6c-0.52,0-1,0.12-1.44,0.32L15.18,10.94z"/><path d="M12,2C6.48,2,2,6.48,2,12s4.48,10,10,10s10-4.48,10-10S17.52,2,12,2z M4,12c0-1.85,0.63-3.55,1.69-4.9l2.86,2.86 c0.21,1.56,1.43,2.79,2.99,2.99l2.2,2.2C13.17,15.05,12.59,15,12,15c-2.32,0-4.45,0.8-6.14,2.12C4.7,15.73,4,13.95,4,12z M12,20 c-1.74,0-3.34-0.56-4.65-1.5C8.66,17.56,10.26,17,12,17s3.34,0.56,4.65,1.5C15.34,19.44,13.74,20,12,20z M18.31,16.9L7.1,5.69 C8.45,4.63,10.15,4,12,4c4.42,0,8,3.58,8,8C20,13.85,19.37,15.54,18.31,16.9z"/>
  </symbol>
  <symbol xmlns="http://www.w3.org/2000/svg" id="btn-google" viewBox="0 0 48 48" width="36px" height="36px"><path fill="#FFC107" d="M43.611,20.083H42V20H24v8h11.303c-1.649,4.657-6.08,8-11.303,8c-6.627,0-12-5.373-12-12c0-6.627,5.373-12,12-12c3.059,0,5.842,1.154,7.961,3.039l5.657-5.657C34.046,6.053,29.268,4,24,4C12.955,4,4,12.955,4,24c0,11.045,8.955,20,20,20c11.045,0,20-8.955,20-20C44,22.659,43.862,21.35,43.611,20.083z"/><path fill="#FF3D00" d="M6.306,14.691l6.571,4.819C14.655,15.108,18.961,12,24,12c3.059,0,5.842,1.154,7.961,3.039l5.657-5.657C34.046,6.053,29.268,4,24,4C16.318,4,9.656,8.337,6.306,14.691z"/><path fill="#4CAF50" d="M24,44c5.166,0,9.86-1.977,13.409-5.192l-6.19-5.238C29.211,35.091,26.715,36,24,36c-5.202,0-9.619-3.317-11.283-7.946l-6.522,5.025C9.505,39.556,16.227,44,24,44z"/><path fill="#1976D2" d="M43.611,20.083H42V20H24v8h11.303c-0.792,2.237-2.231,4.166-4.087,5.571c0.001-0.001,0.002-0.001,0.003-0.002l6.19,5.238C36.971,39.205,44,34,44,24C44,22.659,43.862,21.35,43.611,20.083z"/>
  </symbol>
  <symbol xmlns="http://www.w3.org/2000/svg" id="btn-twitter" viewBox="0 0 48 48" width="36px" height="36px"><path fill="#03a9f4" d="M24 4A20 20 0 1 0 24 44A20 20 0 1 0 24 4Z"/><path fill="#fff" d="M36,17.12c-0.882,0.391-1.999,0.758-3,0.88c1.018-0.604,2.633-1.862,3-3 c-0.951,0.559-2.671,1.156-3.793,1.372C31.311,15.422,30.033,15,28.617,15C25.897,15,24,17.305,24,20v2c-4,0-7.9-3.047-10.327-6 c-0.427,0.721-0.667,1.565-0.667,2.457c0,1.819,1.671,3.665,2.994,4.543c-0.807-0.025-2.335-0.641-3-1c0,0.016,0,0.036,0,0.057 c0,2.367,1.661,3.974,3.912,4.422C16.501,26.592,16,27,14.072,27c0.626,1.935,3.773,2.958,5.928,3c-1.686,1.307-4.692,2-7,2 c-0.399,0-0.615,0.022-1-0.023C14.178,33.357,17.22,34,20,34c9.057,0,14-6.918,14-13.37c0-0.212-0.007-0.922-0.018-1.13 C34.95,18.818,35.342,18.104,36,17.12"/></symbol>
</svg>